# xmcd
#
# Track frame offsets:
#	150
#	17130
#	34685
#	45107
#	60550
#	75025
#	93187
#	107425
#	118452
#	131282
#	142455
#	157720
#	171817
#	187832
#	205975
#
# Disc length: 2919 seconds
#
# Revision: 2
# Processed by: cddbd v1.5.2PL0 Copyright (c) Steve Scherf et al.
# Submitted via: audiograbber 1.83.01
#
DISCID=b20b650f
DTITLE=Various Artist - The Shamrock Connection Vol. 3
DYEAR=1995
DGENRE=Country
TTITLE0=Trudi Labor - Blossom time in Ireland
TTITLE1=Declan Nerney - Blue side of lonesome
TTITLE2=Larry Cunningham - Country selection
TTITLE3=Bob Brolly - Daddy played the squeeze box
TTITLE4=P.J. Murihy - Eileen Alanna
TTITLE5=Mary Duff - If anything happened to you
TTITLE6=The Conquerors - Nobody loves you when you are free
TTITLE7=Kevin Prendergast - Sweet Fiona Brown
TTITLE8=Big Tom - The girl I love now lives in Birmingham
TTITLE9=Louise Morissey - The heaven I call home
TTITLE10=Seamus Moore - The Piebald ass
TTITLE11=Hugo Duncan - Three good reasons
TTITLE12=Denis Murray - Waltzing on borrowed time
TTITLE13=Kevin Conlon - I'm going back to Sligo
TTITLE14=Paddy O'Brien - When the harvest moon is shining
EXTD=
EXTT0=
EXTT1=
EXTT2=
EXTT3=
EXTT4=
EXTT5=
EXTT6=
EXTT7=
EXTT8=
EXTT9=
EXTT10=
EXTT11=
EXTT12=
EXTT13=
EXTT14=
PLAYORDER=
